<svg height="512pt" viewBox="-71 0 512 512.00126" width="512pt" xmlns="http://www.w3.org/2000/svg" stroke="#ffffff" fill="#ffffff"><path d="m365.800781 269.300781c-.820312-5.503906-5.953125-9.296875-11.449219-8.476562-5.5.820312-9.296874 5.945312-8.476562 11.445312 7.609375 51.042969 14.386719 173.570313-86.808594 208.796875-51.699218 17.992188-123.457031 13.128906-170.621094-11.566406-73.945312-38.734375-88.753906-127.183594-38.648437-230.832031 15.332031-31.699219 25.011719-56.375 20.027344-108.488281-1.308594-13.78125-8.082031-26.34375-13.527344-36.4375-1.765625-3.277344-4.160156-7.714844-5.464844-10.902344 4.039063-.152344 11.007813.75 19.53125 4.886718 12.53125 6.085938 35.03125 22.835938 44.953125 66.65625.820313 3.628907 3.578125 6.511719 7.171875 7.492188s7.429688-.101562 9.984375-2.8125c17.828125-18.929688 26.742188-45.089844 26.496094-77.75-.160156-21.015625-4.078125-41.867188-8.199219-58.722656 8.789063 2.761718 20.230469 8.589844 31.351563 20.804687 22.054687 24.222657 35.058594 63.949219 38.65625 118.074219.1875 2.804688 1.535156 5.402344 3.71875 7.167969 1.511718 1.21875 7.035156 4.84375 14.667968.195312 12.601563-7.679687 31.460938-38.417969 27.632813-81.621093 3.285156 3.757812 7.210937 8.511718 11.8125 14.457031 16.773437 21.714843 32.164063 50.53125 44.507813 83.339843 1.960937 5.207032 7.769531 7.839844 12.976562 5.878907 5.207031-1.957031 7.835938-7.765625 5.878906-12.972657-13.042968-34.65625-29.441406-65.28125-47.425781-88.566406-7.589844-9.804687-14.5-17.890625-19.992187-23.386718-4.890626-4.894532-14-14.003907-23.339844-9.710938-6.34375 2.917969-8.511719 9.46875-6.445313 19.476562 5.828125 28.214844.195313 49.066407-6.027343 61.726563-5.886719-47.496094-19.882813-83.628906-41.722657-107.617187-24.03125-26.390626-49.816406-29.65625-59.785156-29.835938-3.160156-.0234375-6.203125 1.394531-8.152344 3.914062-1.945312 2.515626-2.585937 5.804688-1.726562 8.871094 9.734375 34.761719 19.472656 82.273438 1.621093 116.675782-18.429687-50.378907-54.785156-65.859376-75.3125-66.714844-12.066406-.496094-20.695312 3.746094-23.101562 11.355468-2.867188 9.039063 2.171875 18.378907 8.003906 29.199219 4.820313 8.933594 10.28125 19.0625 11.203125 28.792969 4.5 47.011719-3.839843 68.3125-18.109375 97.808594-28.542968 59.046875-38.039062 114.664062-27.457031 160.835937 9.773437 42.652344 35.671875 76.058594 74.894531 96.605469 25.914063 13.566406 57.921875 21.902344 92.574219 24.101562 5.839844.371094 11.675781.558594 17.476563.554688 27.460937 0 54.128906-4.109375 76.539062-11.910156 43.964844-15.300782 74.609375-46.355469 91.085938-92.289063 13.714843-38.226562 16.835937-86.121093 9.027343-138.5zm0 0"/><path d="m194.8125 418.464844c-5.535156.535156-9.585938 5.457031-9.050781 10.996094.507812 5.203124 4.890625 9.097656 10.011719 9.097656.328124 0 .65625-.015625.988281-.046875 25.367187-2.464844 47.320312-12.042969 63.484375-27.699219 20.222656-19.578125 29.855468-47.292969 27.867187-80.148438-1.863281-30.816406-13.832031-64.140624-34.605469-96.371093-15.78125-24.457031-23.628906-27.332031-29.753906-26.78125-4.519531.402343-8.296875 3.226562-10.074218 7.488281-1.160157 2.714844-.964844 4.835938-.53125 9.476562.808593 8.714844 2.710937 29.121094-4.148438 44.859376-1.464844 3.355468-4.039062 5.683593-5.945312 6.816406-8.863282-61.945313-37.160157-76.40625-62.140626-89.171875-2.230468-1.140625-4.453124-2.277344-6.648437-3.445313-3.535156-1.878906-7.851563-1.488281-10.988281 1.003906-3.140625 2.488282-4.503906 6.601563-3.476563 10.472657 10.664063 40.152343-3.210937 65.203125-17.894531 91.722656-2.433594 4.390625-4.949219 8.933594-7.304688 13.488281-16.835937 32.570313-12.257812 72.765625 11.664063 102.398438 3.492187 4.328125 9.835937 5.003906 14.164063 1.511718 4.328124-3.492187 5.003906-9.835937 1.507812-14.164062-18.90625-23.417969-22.613281-55.015625-9.445312-80.492188 2.222656-4.296874 4.558593-8.515624 7.035156-12.984374 12.867187-23.238282 27.1875-49.09375 23.625-85.511719 18.171875 10.449219 33.96875 25.347656 40.039062 68.570312 1.195313 9.632813 6.878906 16.113281 15.222656 17.339844 10.820313 1.585937 23.585938-6.972656 29.050782-19.503906 5.179687-11.878907 6.601562-24.945313 6.699218-35.828125.773438 1.136718 1.578126 2.351562 2.414063 3.652344 18.90625 29.328124 29.777344 59.296874 31.433594 86.671874 1.621093 26.804688-5.910157 49.097657-21.773438 64.460938-13.046875 12.632812-30.34375 20.074219-51.425781 22.121094zm0 0"/><path d="m337.777344 231.078125.085937.171875c1.765625 3.527344 5.324219 5.570312 9.015625 5.570312 1.515625 0 3.050782-.34375 4.496094-1.066406 4.976562-2.488281 6.992188-8.539062 4.507812-13.511718l-.085937-.171876c-2.488281-4.972656-8.539063-6.988281-13.511719-4.503906-4.976562 2.488282-6.992187 8.539063-4.507812 13.511719zm0 0"/><path d="m152.582031 412.789062c-5.121093-2.179687-11.035156.199219-13.214843 5.3125-2.183594 5.117188.195312 11.035157 5.3125 13.214844l.199218.085938c1.289063.550781 2.628906.808594 3.945313.808594 3.914062 0 7.636719-2.292969 9.269531-6.121094 2.179688-5.117188-.199219-11.03125-5.3125-13.214844zm0 0"/></svg>
