<svg height="512pt" viewBox="-50 0 511 512" width="512pt" xmlns="http://www.w3.org/2000/svg" stroke="#ffffff" fill="#ffffff"><path d="m406.363281 183.222656c-.144531-.109375-.300781-.21875-.472656-.324218-.007813-.003907-.011719-.007813-.019531-.011719 0 0 0 0-.003906-.003907 0 0 0 0-.003907 0l-13.644531-8.285156 17.8125-29.277344c2.894531-4.75 1.386719-10.949218-3.367188-13.839843-4.753906-2.890625-10.945312-1.382813-13.835937 3.371093l-23.054687 37.886719c-.003907.003907-.003907.003907-.003907.007813-.007812.011718-.015625.023437-.019531.035156-.722656 1.195312-1.101562 2.152344-1.1875 2.960938-.933594 4.109374.785156 8.53125 4.585938 10.839843l13.644531 8.285157-17.8125 29.273437c-2.890625 4.753906-1.382813 10.949219 3.367187 13.839844 1.636719.996093 3.441406 1.46875 5.226563 1.46875 3.398437 0 6.714843-1.722657 8.613281-4.835938l23.054688-37.886719c2.78125-4.582031 1.472656-10.496093-2.878907-13.503906zm0 0"/><path d="m25.207031 194.867188 13.648438-8.285157c0-.003906.003906-.003906.003906-.003906 0-.003906.003906-.003906.003906-.003906.011719-.007813.019531-.015625.03125-.019531.617188-.378907 1.109375-.753907 1.503907-1.132813 3.503906-3.179687 4.382812-8.492187 1.832031-12.683594l-23.054688-37.886719c-2.890625-4.753906-9.085937-6.261718-13.839843-3.371093-4.75 2.890625-6.257813 9.089843-3.367188 13.839843l17.816406 29.277344-13.648437 8.285156c-4.753907 2.882813-6.265625 9.078126-3.378907 13.832032 0 .003906.003907.007812.003907.007812v.003906l23.058593 37.886719c1.894532 3.113281 5.210938 4.835938 8.609376 4.835938 1.785156 0 3.59375-.472657 5.226562-1.46875 4.75-2.890625 6.257812-9.085938 3.367188-13.839844zm0 0"/><path d="m257.96875.117188c-.472656-.070313-.957031-.117188-1.449219-.117188-.226562 0-.449219.0195312-.675781.0351562-.792969-.0234374-1.585938-.0351562-2.386719-.0351562h-91.484375c-47.925781 0-86.917968 41.632812-86.917968 86.867188v184.054687c0 45.722656 35.53125 83.304687 80.449218 86.625v14.511719c0 15.320312 7.835938 28.84375 19.710938 36.789062v38.292969h-62.128906c-13.949219 0-25.296876 11.34375-25.296876 25.289063v14.28125c0 13.945312 11.347657 25.289062 25.296876 25.289062h49.285156c5.5625 0 10.074218-4.507812 10.074218-10.070312s-4.511718-10.070313-10.074218-10.070313h-49.285156c-2.796876 0-5.15625-2.359375-5.15625-5.148437v-14.28125c0-2.789063 2.359374-5.144532 5.15625-5.144532h187.84375c2.828124 0 5.128906 2.308594 5.128906 5.144532v14.28125c0 2.792968-2.351563 5.148437-5.128906 5.148437h-48.917969c-5.5625 0-10.070313 4.507813-10.070313 10.070313s4.507813 10.070312 10.070313 10.070312h48.914062c13.933594 0 25.273438-11.34375 25.273438-25.289062v-14.28125c0-13.945313-11.339844-25.289063-25.273438-25.289063h-62.125v-37.382813c12.664063-7.792968 21.125-21.777343 21.125-37.699218v-14.511719c44.917969-3.320313 80.453125-40.902344 80.453125-86.625v-184.054687c0-46.386719-36.570312-84.398438-82.410156-86.75zm-39.308594 447.023437h-23.304687v-31.058594c1.453125.144531 2.929687.222657 4.421875.222657h15.878906c1.007812 0 2.007812-.046876 3.003906-.113282zm21.125-75.082031c0 9.640625-5.699218 17.976562-13.910156 21.828125-.703125.207031-1.375.488281-2.007812.835937-2.566407.929688-5.328126 1.4375-8.210938 1.4375h-15.878906c-3.726563 0-7.257813-.847656-10.410156-2.359375-.03125-.015625-.054688-.027343-.085938-.039062-8.0625-3.90625-13.632812-12.167969-13.632812-21.703125v-14.273438h64.136718zm80.453125-239.804688h-64.824219c-5.5625 0-10.070312 4.507813-10.070312 10.070313s4.507812 10.070312 10.070312 10.070312h64.824219v28.628907h-64.824219c-5.5625 0-10.070312 4.507812-10.070312 10.070312s4.507812 10.070312 10.070312 10.070312h64.824219v28.597657h-64.824219c-5.5625 0-10.070312 4.511719-10.070312 10.074219 0 5.558593 4.507812 10.070312 10.070312 10.070312h64.824219v21.015625c0 36.792969-29.957031 66.722656-66.78125 66.722656h-91.484375c-36.820312 0-66.777344-29.933593-66.777344-66.722656v-21.015625h63.007813c5.5625 0 10.070313-4.511719 10.070313-10.070312 0-5.5625-4.507813-10.074219-10.070313-10.074219h-63.007813v-28.597657h63.007813c5.5625 0 10.070313-4.507812 10.070313-10.070312s-4.507813-10.070312-10.070313-10.070312h-63.007813v-28.628907h63.007813c5.5625 0 10.070313-4.507812 10.070313-10.070312s-4.507813-10.070313-10.070313-10.070313h-63.007813v-45.386718c0-32.300782 23.09375-59.308594 53.644532-65.421876v62.652344c0 5.558594 4.511718 10.070313 10.074218 10.070313 5.558594 0 10.070313-4.511719 10.070313-10.070313v-63.957031h28.660156v62.957031c0 5.5625 4.511719 10.070313 10.070313 10.070313 5.5625 0 10.070312-4.507813 10.070312-10.070313v-62.957031h28.664063v62.957031c0 5.5625 4.507812 10.070313 10.070312 10.070313s10.070313-4.507813 10.070313-10.070313v-61.652344c30.554687 6.113282 53.648437 33.121094 53.648437 65.421876zm0 0"/><path d="m207.175781 491.859375h-.167969c-5.5625 0-10.070312 4.507813-10.070312 10.070313s4.507812 10.070312 10.070312 10.070312h.167969c5.5625 0 10.074219-4.507812 10.074219-10.070312s-4.511719-10.070313-10.074219-10.070313zm0 0"/></svg>
