<svg height="511pt" viewBox="0 -37 511.99979 511" width="511pt" xmlns="http://www.w3.org/2000/svg" stroke="#ffffff" fill="#ffffff"><path d="m369.738281 307.773438 75.355469-90.726563c2.214844-2.664063 2.902344-6.285156 1.820312-9.578125-1.082031-3.292969-3.78125-5.796875-7.144531-6.628906l-116.835937-28.9375c-5.402344-1.335938-10.859375 1.957031-12.199219 7.355468-1.335937 5.398438 1.957031 10.859376 7.355469 12.195313l101.253906 25.074219-67.699219 81.507812c-1.667969 2.011719-2.492187 4.589844-2.296875 7.191406l8.050782 106.484376-95.898438-40.625c-2.507812-1.0625-5.34375-1.0625-7.855469 0l-95.867187 40.625 8.050781-106.484376c.195313-2.601562-.628906-5.183593-2.296875-7.191406l-67.695312-81.503906 88.996093-22.019531 12.269531-3.058594c2.59375-.648437 4.828126-2.304687 6.203126-4.597656l45.285156-75.613281 8.988281-15.027344 5.464844 9.136718c2.855469 4.769532 9.039062 6.324219 13.8125 3.46875 4.773437-2.855468 6.328125-9.039062 3.472656-13.8125l-14.113281-23.578124c-1.820313-3.039063-5.101563-4.902344-8.644532-4.898438-3.539062 0-6.820312 1.859375-8.640624 4.902344l-17.621094 29.464844-43.136719 72.023437-8.199219 2.042969-104.566406 25.875c-3.363281.832031-6.066406 3.335937-7.148438 6.628906-1.082031 3.292969-.394531 6.914062 1.820313 9.578125l75.355469 90.726563-8.988282 118.898437c-.265624 3.503906 1.316407 6.890625 4.167969 8.9375 2.855469 2.050781 6.570313 2.464844 9.804688 1.09375l107.15625-45.40625 107.183593 45.40625c1.261719.535156 2.597657.796875 3.925782.796875 2.078125 0 4.136718-.640625 5.875-1.890625 2.851562-2.046875 4.433594-5.433594 4.167968-8.9375zm0 0"/><path d="m69.871094 88.644531-9.945313 39.660157c-.863281 3.4375.144531 7.070312 2.648438 9.574218 2.503906 2.5 6.132812 3.507813 9.570312 2.644532l39.632813-9.945313 34.328125 20.703125c1.59375.960938 3.394531 1.445312 5.199219 1.445312 1.554687 0 3.109374-.359374 4.542968-1.082031 3.09375-1.5625 5.167969-4.605469 5.484375-8.058593l3.765625-40.660157 31.335938-26.902343c2.667968-2.289063 3.949218-5.800782 3.378906-9.269532s-2.902344-6.386718-6.160156-7.707031l-37.21875-15.0625-15.03125-37.1875c-1.316406-3.257813-4.238282-5.59375-7.703125-6.164063-3.46875-.570312-6.980469.707032-9.269531 3.371094l-26.933594 31.320313-40.632813 3.761719c-3.453125.316406-6.496093 2.390624-8.058593 5.484374-1.566407 3.09375-1.429688 6.773438.363281 9.742188zm33.539062-33.640625c2.597656-.242187 5.003906-1.484375 6.707032-3.460937l18.808593-21.871094 10.4375 25.824219c1.023438 2.527344 3.027344 4.535156 5.558594 5.558594l25.84375 10.460937-21.882813 18.785156c-1.980468 1.703125-3.226562 4.109375-3.46875 6.710938l-2.65625 28.730469-24.164062-14.574219c-1.582031-.957031-3.386719-1.449219-5.203125-1.449219-.820313 0-1.644531.101562-2.453125.304688l-27.382812 6.871093 6.875-27.414062c.652343-2.601563.238281-5.355469-1.144532-7.652344l-14.578125-24.167969zm0 0"/><path d="m341.496094 242.609375c-1.082032-3.292969-3.78125-5.800781-7.148438-6.632813l-44.273437-10.953124-23.859375-39.84375c-1.820313-3.039063-5.101563-4.898438-8.644532-4.898438-3.539062 0-6.820312 1.859375-8.640624 4.898438l-23.859376 39.847656-44.25 10.949218c-3.363281.835938-6.0625 3.339844-7.144531 6.632813s-.398437 6.914063 1.816407 9.578125l29.648437 35.691406-3.546875 46.777344c-.265625 3.503906 1.3125 6.890625 4.167969 8.941406 1.738281 1.25 3.800781 1.890625 5.875 1.890625 1.332031 0 2.667969-.265625 3.929687-.800781l42.003906-17.804688 42.035157 17.804688c3.238281 1.371094 6.953125.957031 9.804687-1.089844 2.851563-2.050781 4.433594-5.4375 4.167969-8.941406l-3.546875-46.777344 29.644531-35.691406c2.21875-2.667969 2.90625-6.285156 1.820313-9.578125zm-49.5625 35.535156c-1.667969 2.007813-2.492188 4.589844-2.292969 7.195313l2.601563 34.355468-30.742188-13.019531c-1.253906-.53125-2.59375-.796875-3.929688-.796875-1.335937 0-2.671874.265625-3.929687.796875l-30.710937 13.015625 2.601562-34.351562c.199219-2.605469-.625-5.1875-2.292969-7.195313l-21.988281-26.472656 32.730469-8.101563c2.601562-.644531 4.839843-2.300781 6.21875-4.601562l17.375-29.015625 17.371093 29.015625c1.378907 2.300781 3.617188 3.957031 6.222657 4.601562l32.753906 8.101563zm0 0"/><path d="m318.738281 76.019531 31.3125 26.902344 3.761719 40.664063c.316406 3.449218 2.390625 6.496093 5.484375 8.058593 1.429687.726563 2.988281 1.082031 4.542969 1.082031 1.804687 0 3.601562-.480468 5.199218-1.441406l34.355469-20.707031 39.632813 9.945313c3.4375.863281 7.070312-.144532 9.574218-2.644532 2.503907-2.503906 3.507813-6.140625 2.648438-9.574218l-9.949219-39.660157 20.707031-34.332031c1.789063-2.96875 1.925782-6.648438.363282-9.742188s-4.609375-5.167968-8.058594-5.484374l-40.636719-3.761719-26.929687-31.316407c-2.289063-2.664062-5.800782-3.9414058-9.269532-3.371093-3.464843.566406-6.382812 2.902343-7.703124 6.15625l-15.0625 37.195312-37.191407 15.058594c-3.253906 1.320313-5.589843 4.238281-6.15625 7.707031-.570312 3.464844.707031 6.976563 3.375 9.265625zm51.488281-14.964843c2.527344-1.023438 4.53125-3.027344 5.554688-5.554688l10.460938-25.835938 18.816406 21.878907c1.703125 1.976562 4.105468 3.21875 6.707031 3.460937l28.699219 2.65625-14.574219 24.167969c-1.386719 2.296875-1.796875 5.050781-1.148437 7.652344l6.878906 27.414062-27.386719-6.875c-2.601563-.648437-5.355469-.242187-7.652344 1.144531l-24.195312 14.582032-2.660157-28.734375c-.238281-2.601563-1.480468-5.007813-3.464843-6.710938l-21.867188-18.785156zm0 0"/><path d="m108.578125 341.296875-25.542969-10.328125-10.355468-25.574219c-1.316407-3.253906-4.238282-5.589843-7.703126-6.15625-3.46875-.566406-6.980468.710938-9.269531 3.375l-18.542969 21.59375-28.023437 2.597657c-3.449219.320312-6.496094 2.394531-8.058594 5.488281-1.5625 3.09375-1.425781 6.773437.363281 9.742187l14.242188 23.613282-6.855469 27.277343c-.863281 3.433594.140625 7.070313 2.644531 9.574219 2.503907 2.503906 6.140626 3.511719 9.578126 2.648438l27.300781-6.859376 23.617187 14.246094c1.59375.960938 3.394532 1.445313 5.203125 1.445313 1.550781 0 3.109375-.359375 4.542969-1.085938 3.09375-1.5625 5.164062-4.609375 5.484375-8.0625l2.574219-27.996093 21.589844-18.566407c2.664062-2.292969 3.941406-5.804687 3.371093-9.269531-.566406-3.464844-2.902343-6.382812-6.160156-7.703125zm-35.023437 22.925781c-1.980469 1.707032-3.222657 4.113282-3.460938 6.714844l-1.476562 16.050781-13.445313-8.109375c-1.582031-.953125-3.382813-1.445312-5.203125-1.445312-.820312 0-1.644531.097656-2.453125.300781l-15.046875 3.78125 3.777344-15.023437c.652344-2.601563.242187-5.355469-1.144532-7.65625l-8.117187-13.457032 16.09375-1.492187c2.601563-.242188 5.007813-1.484375 6.710937-3.46875l10.425782-12.140625 5.753906 14.207031c1.023438 2.527344 3.03125 4.53125 5.558594 5.554687l14.179687 5.734376zm0 0"/><path d="m286.101562 145.167969c1.890626 3.136719 5.21875 4.871093 8.632813 4.871093 1.769531 0 3.566406-.46875 5.191406-1.453124 4.761719-2.871094 6.292969-9.0625 3.421875-13.824219l-.085937-.140625c-2.875-4.765625-9.066407-6.292969-13.828125-3.417969-4.761719 2.871094-6.292969 9.0625-3.417969 13.824219zm0 0"/><path d="m510.917969 332.292969c-1.5625-3.09375-4.609375-5.167969-8.058594-5.488281l-28.023437-2.597657-18.542969-21.589843c-2.289063-2.667969-5.796875-3.945313-9.269531-3.378907-3.464844.566407-6.386719 2.902344-7.703126 6.15625l-10.355468 25.574219-25.570313 10.328125c-3.257812 1.316406-5.59375 4.238281-6.164062 7.703125-.570313 3.464844.707031 6.980469 3.371093 9.269531l21.597657 18.574219 2.597656 28c.320313 3.449219 2.394531 6.492188 5.488281 8.054688 1.429688.726562 2.984375 1.082031 4.539063 1.082031 1.804687 0 3.605469-.484375 5.203125-1.445313l23.613281-14.242187 27.273437 6.855469c3.4375.867187 7.070313-.140626 9.574219-2.640626 2.503907-2.503906 3.511719-6.136718 2.652344-9.570312l-6.832031-27.28125 14.242187-23.621094c1.792969-2.96875 1.929688-6.648437.367188-9.742187zm-35.167969 34.191406 3.765625 15.03125-15.03125-3.78125c-2.605469-.652344-5.359375-.242187-7.65625 1.144531l-13.460937 8.117188-1.492188-16.066406c-.238281-2.601563-1.480469-5.003907-3.460938-6.707032l-12.148437-10.445312 14.203125-5.738282c2.527344-1.023437 4.535156-3.027343 5.558594-5.554687l5.753906-14.207031 10.425781 12.140625c1.703125 1.980469 4.109375 3.222656 6.710938 3.464843l16.09375 1.496094-8.117188 13.457032c-1.382812 2.296874-1.792969 5.046874-1.144531 7.648437zm0 0"/></svg>
