<svg id="Слой_1" data-name="Слой 1" xmlns="http://www.w3.org/2000/svg" viewBox="0 0 266.31 126.65"><defs><style>.cls-1{fill:#e1e1e1;}.cls-2{fill:#747474;}</style></defs><title>NDNL</title><path class="cls-1" d="M98.58,108.52v99H76.83l-39-69.3v69.3H19.08v-99H42.93l36.9,65.7v-65.7Z" transform="translate(-19.08 -81.31)"/><path class="cls-1" d="M111.27,207.52H78.72v-99h32.55q20.7,0,33.6,11.1Q160,133,160,158.17q0,24.45-14.25,37.5Q133,207.52,111.27,207.52Zm-13.65-81v63H108q12.45,0,20.7-5.55,12.15-8.25,12.15-25.95,0-18-12.45-26.4-7.8-5.1-20.4-5.1Z" transform="translate(-19.08 -81.31)"/><path class="cls-1" d="M112.23,207.52H79.68v-99h32.55q20.7,0,33.6,11.1Q161,133,161,158.17q0,24.45-14.25,37.5Q134,207.52,112.23,207.52Zm-13.65-81v63h10.35q12.45,0,20.7-5.55,12.15-8.25,12.15-25.95,0-18-12.45-26.4-7.8-5.1-20.4-5.1Z" transform="translate(-19.08 -81.31)"/><path class="cls-1" d="M112.23,207.52H79.68v-99h32.55q20.7,0,33.6,11.1Q161,133,161,158.17q0,24.45-14.25,37.5Q134,207.52,112.23,207.52Zm-13.65-81v63h10.35q12.45,0,20.7-5.55,12.15-8.25,12.15-25.95,0-18-12.45-26.4-7.8-5.1-20.4-5.1Z" transform="translate(-19.08 -81.31)"/><path class="cls-1" d="M248.2,109v99H226.45l-39-69.3V208H168.7V109h23.85l36.9,65.7V109Z" transform="translate(-19.08 -81.31)"/><path class="cls-1" d="M285.39,190v18H229.44V109h18.9v81Z" transform="translate(-19.08 -81.31)"/><path class="cls-2" d="M27.36,113.66H19.1V82h8.26q7.34,0,11.42,4.22T43,97.87c0,4.89-1.38,8.77-4.13,11.61S32.29,113.66,27.36,113.66Zm-5.09-28.8v25.92h5.47q6,0,9-3.65a14.22,14.22,0,0,0,3-9.21,14,14,0,0,0-3.07-9.36q-3.12-3.7-8.88-3.7Z" transform="translate(-19.08 -81.31)"/><path class="cls-2" d="M85.44,110.78v2.88H68.25V82H85.44v2.88h-14v9H82.17v2.88H71.42v14.06Z" transform="translate(-19.08 -81.31)"/><path class="cls-2" d="M109.44,112.75v-2.93a10.55,10.55,0,0,0,4.75,1.39,4.6,4.6,0,0,0,3.6-1.34,5.28,5.28,0,0,0,1.2-3.65,7.38,7.38,0,0,0-1-3.41,26.7,26.7,0,0,0-3.65-4.8c-.13-.16-.56-.61-1.29-1.34l-1.25-1.39-1-1.2a17.09,17.09,0,0,1-1.58-2.69,7.22,7.22,0,0,1-.63-3.17,6.2,6.2,0,0,1,2-4.94,8.13,8.13,0,0,1,5.55-1.78,9.13,9.13,0,0,1,3.36.48l.43.14v2.79a14.44,14.44,0,0,0-4-.58,4.75,4.75,0,0,0-3.1,1,3.24,3.24,0,0,0-1.18,2.64,6.25,6.25,0,0,0,1.3,3.46l1.15,1.49a7.48,7.48,0,0,1,.67.81c.1.1.37.4.82.91s.74.84.86,1a37.35,37.35,0,0,1,4.42,5.91,9.16,9.16,0,0,1,1.2,4.7,9.68,9.68,0,0,1-.72,3.87,5.89,5.89,0,0,1-1.87,2.49,8.61,8.61,0,0,1-2.33,1.23,7.79,7.79,0,0,1-2.38.38,11.63,11.63,0,0,1-3-.43A8.08,8.08,0,0,1,109.44,112.75Z" transform="translate(-19.08 -81.31)"/><path class="cls-2" d="M150.67,82v31.68H147.5V82Z" transform="translate(-19.08 -81.31)"/><path class="cls-2" d="M197.13,110.83v-9.36h3.12V113a22.65,22.65,0,0,1-8.68,1.34q-7.06,0-11.19-3.89-4.45-4.21-4.46-12.67,0-8.68,4.94-13,4-3.5,10.51-3.5a22.23,22.23,0,0,1,7.59,1.2v2.88a21.29,21.29,0,0,0-7.3-1.2q-5.72,0-9,3.26-3.51,3.36-3.51,10.27t3.6,10.56q3.27,3.23,9.94,3.22A14.7,14.7,0,0,0,197.13,110.83Z" transform="translate(-19.08 -81.31)"/><path class="cls-2" d="M248.16,82v31.68h-3.89l-15.55-28v28H225.6V82h4.51L245,108.86V82Z" transform="translate(-19.08 -81.31)"/></svg>